<?xml version="1.0" encoding="utf-8"?>
<!-- Generator: Adobe Illustrator 16.0.0, SVG Export Plug-In . SVG Version: 6.00 Build 0)  -->
<!DOCTYPE svg PUBLIC "-//W3C//DTD SVG 1.1//EN" "http://www.w3.org/Graphics/SVG/1.1/DTD/svg11.dtd">
<svg version="1.1" xmlns="http://www.w3.org/2000/svg" xmlns:xlink="http://www.w3.org/1999/xlink" x="0px" y="0px" width="3000px"
	 height="3000px" viewBox="0 0 3000 3000" enable-background="new 0 0 3000 3000" xml:space="preserve">
<g id="Layer_2_copy_4" display="none">
	<path display="inline" fill="#FFFFFF" stroke="#000000" stroke-width="6" stroke-miterlimit="10" d="M343,1973
		c24.702-188.901,105.886-333.99,202.707-409.954C715.411,1429.901,933.155,1509.118,979,1937
		c42.546,397.094,204.081,507.714,337.674,417.64c88.966-59.985,165.54-208.977,186.326-421.64"/>
	<path display="inline" fill="#FFFFFF" stroke="#000000" stroke-width="6" stroke-miterlimit="10" d="M1261,1204"/>
	<path display="inline" fill="#FFFFFF" stroke="#000000" stroke-width="6" stroke-miterlimit="10" d="M2421,1164
		c-20.604,210.79-96.016,359.024-183.979,420.033C2102.98,1677.001,1939.795,1567.423,1897,1168
		c-45.66-426.158-261.837-506.455-431.239-375.553C1368.036,867.963,1285.877,1013.765,1261,1204"/>
	
		<line display="inline" fill="#FFFFFF" stroke="#000000" stroke-width="6" stroke-miterlimit="10" x1="2421" y1="1164" x2="1501.746" y2="1935.346"/>
	
		<line display="inline" fill="none" stroke="#000000" stroke-width="6" stroke-miterlimit="10" x1="1261" y1="1204" x2="341.746" y2="1975.346"/>
	
		<line display="inline" fill="#FFFFFF" stroke="#000000" stroke-width="6" stroke-miterlimit="10" x1="2237" y1="1583" x2="1317" y2="2354.346"/>
	
		<line display="inline" fill="none" stroke="#000000" stroke-width="6" stroke-miterlimit="10" x1="1466" y1="792" x2="546.746" y2="1563.346"/>
</g>
<g id="Layer_2_copy" display="none">
	<path display="inline" fill="none" stroke="#000000" stroke-width="6" stroke-miterlimit="10" d="M1261,1204c68-520,564-708,636-36
		c70.879,661.538,472,528,524-4"/>
	<path display="inline" fill="none" stroke="#000000" stroke-width="6" stroke-miterlimit="10" d="M450,2082c68-520,564-708,636-36
		c70.879,661.538,472,528,524-4"/>
</g>
<g id="Layer_2_copy_5" display="none">
	<path display="inline" fill="#FFFFFF" stroke="#000000" stroke-width="6" stroke-miterlimit="10" d="M979,1937
		c3.75,34.998,8.424,67.771,13.921,98.376c56.881,316.657,201.934,401.399,323.752,319.264
		c88.966-59.985,165.54-208.977,186.326-421.64"/>
	<path display="inline" fill="#FFFFFF" stroke="#000000" stroke-width="6" stroke-miterlimit="10" d="M545.707,1563.046
		C715.411,1429.901,933.155,1509.118,979,1937"/>
	<path display="inline" fill="#FFFFFF" stroke="#000000" stroke-width="6" stroke-miterlimit="10" d="M343,1973
		c24.702-188.901,105.886-333.99,202.707-409.954"/>
	<path display="inline" fill="#FFFFFF" stroke="#000000" stroke-width="6" stroke-miterlimit="10" d="M1261,1204"/>
	<path display="inline" fill="#FFFFFF" stroke="#000000" stroke-width="6" stroke-miterlimit="10" d="M1261,1204"/>
	<path display="inline" fill="#FFFFFF" stroke="#000000" stroke-width="6" stroke-miterlimit="10" d="M1465.761,792.447"/>
	<path display="inline" fill="#FFFFFF" stroke="#000000" stroke-width="6" stroke-miterlimit="10" d="M1998.855,1517.322
		C1951.702,1444.885,1914.4,1330.399,1897,1168c-45.66-426.158-261.837-506.455-431.239-375.553"/>
	<path display="inline" fill="#FFFFFF" stroke="#000000" stroke-width="6" stroke-miterlimit="10" d="M1998.855,1517.322"/>
	<path display="inline" fill="#FFFFFF" stroke="#000000" stroke-width="6" stroke-miterlimit="10" d="M2421,1164
		c-20.604,210.79-96.016,359.024-183.979,420.033"/>
	
		<line display="inline" fill="#FFFFFF" stroke="#000000" stroke-width="6" stroke-miterlimit="10" x1="2421" y1="1164" x2="1501.746" y2="1935.346"/>
	
		<line display="inline" fill="none" stroke="#000000" stroke-width="6" stroke-miterlimit="10" x1="838.41" y1="1558.596" x2="341.746" y2="1975.346"/>
	<path display="inline" fill="none" stroke="#000000" stroke-width="6" stroke-miterlimit="10" d="M838.41,1558.596"/>
	<path display="inline" fill="none" stroke="#000000" stroke-width="6" stroke-miterlimit="10" d="M1261,1204"/>
	<polyline display="inline" fill="#FFFFFF" stroke="#000000" stroke-width="6" stroke-miterlimit="10" points="2237,1583 
		1960.515,1814.812 1317,2354.346 	"/>
	
		<line display="inline" fill="none" stroke="#000000" stroke-width="6" stroke-miterlimit="10" x1="1466" y1="792" x2="546.746" y2="1563.346"/>
</g>
<g id="Layer_1" display="none">
	
		<line display="inline" fill="none" stroke="#FFFFFF" stroke-width="6" stroke-miterlimit="10" x1="1260" y1="414" x2="1260" y2="1814"/>
	
		<line display="inline" fill="none" stroke="#FFFFFF" stroke-width="6" stroke-miterlimit="10" x1="1260" y1="1814" x2="2660" y2="1814"/>
	
		<line display="inline" fill="none" stroke="#FFFFFF" stroke-width="6" stroke-miterlimit="10" x1="1259" y1="1814" x2="339.747" y2="2585.346"/>
</g>
<g id="Layer_13" display="none">
	<g id="Layer_11">
		
			<line display="inline" fill="none" stroke="#FFFFFF" stroke-width="2" stroke-miterlimit="10" x1="1359" y1="1814" x2="439.747" y2="2585.346"/>
		
			<line display="inline" fill="none" stroke="#FFFFFF" stroke-width="2" stroke-miterlimit="10" x1="1459" y1="1814" x2="539.747" y2="2585.346"/>
		
			<line display="inline" fill="none" stroke="#FFFFFF" stroke-width="2" stroke-miterlimit="10" x1="1559" y1="1814" x2="639.747" y2="2585.346"/>
		
			<line display="inline" fill="none" stroke="#FFFFFF" stroke-width="2" stroke-miterlimit="10" x1="1659" y1="1814" x2="739.747" y2="2585.346"/>
		
			<line display="inline" fill="none" stroke="#FFFFFF" stroke-width="2" stroke-miterlimit="10" x1="1759" y1="1814" x2="839.747" y2="2585.346"/>
		
			<line display="inline" fill="none" stroke="#FFFFFF" stroke-width="2" stroke-miterlimit="10" x1="1859" y1="1814" x2="939.747" y2="2585.346"/>
		
			<line display="inline" fill="none" stroke="#FFFFFF" stroke-width="2" stroke-miterlimit="10" x1="1959" y1="1814" x2="1039.747" y2="2585.346"/>
		
			<line display="inline" fill="none" stroke="#FFFFFF" stroke-width="2" stroke-miterlimit="10" x1="2059" y1="1814" x2="1139.747" y2="2585.346"/>
		
			<line display="inline" fill="none" stroke="#FFFFFF" stroke-width="2" stroke-miterlimit="10" x1="2159" y1="1814" x2="1239.747" y2="2585.346"/>
		
			<line display="inline" fill="none" stroke="#FFFFFF" stroke-width="2" stroke-miterlimit="10" x1="2259" y1="1814" x2="1339.747" y2="2585.346"/>
		
			<line display="inline" fill="none" stroke="#FFFFFF" stroke-width="2" stroke-miterlimit="10" x1="2359" y1="1814" x2="1439.747" y2="2585.346"/>
		
			<line display="inline" fill="none" stroke="#FFFFFF" stroke-width="2" stroke-miterlimit="10" x1="2459" y1="1814" x2="1539.747" y2="2585.346"/>
		
			<line display="inline" fill="none" stroke="#FFFFFF" stroke-width="2" stroke-miterlimit="10" x1="2559" y1="1814" x2="1639.747" y2="2585.346"/>
	</g>
	<g id="Layer_11_copy">
		
			<line display="inline" fill="none" stroke="#FFFFFF" stroke-width="2" stroke-miterlimit="10" x1="1258" y1="1816" x2="2458" y2="1816"/>
		
			<line display="inline" fill="none" stroke="#FFFFFF" stroke-width="2" stroke-miterlimit="10" x1="1182" y1="1880" x2="2582" y2="1880"/>
		
			<line display="inline" fill="none" stroke="#FFFFFF" stroke-width="2" stroke-miterlimit="10" x1="1105" y1="1944" x2="2505" y2="1944"/>
		
			<line display="inline" fill="none" stroke="#FFFFFF" stroke-width="2" stroke-miterlimit="10" x1="1028.439" y1="2006.836" x2="2428.439" y2="2006.838"/>
		
			<line display="inline" fill="none" stroke="#FFFFFF" stroke-width="2" stroke-miterlimit="10" x1="952" y1="2073" x2="2352" y2="2073"/>
		
			<line display="inline" fill="none" stroke="#FFFFFF" stroke-width="2" stroke-miterlimit="10" x1="875" y1="2137" x2="2275" y2="2137"/>
		
			<line display="inline" fill="none" stroke="#FFFFFF" stroke-width="2" stroke-miterlimit="10" x1="799" y1="2201" x2="2199" y2="2201"/>
		
			<line display="inline" fill="none" stroke="#FFFFFF" stroke-width="2" stroke-miterlimit="10" x1="722" y1="2265" x2="2122" y2="2265"/>
		
			<line display="inline" fill="none" stroke="#FFFFFF" stroke-width="2" stroke-miterlimit="10" x1="645" y1="2330" x2="2045" y2="2330"/>
		
			<line display="inline" fill="none" stroke="#FFFFFF" stroke-width="2" stroke-miterlimit="10" x1="569" y1="2394" x2="1969" y2="2394"/>
		
			<line display="inline" fill="none" stroke="#FFFFFF" stroke-width="2" stroke-miterlimit="10" x1="492.209" y1="2456.787" x2="1892.209" y2="2456.789"/>
		
			<line display="inline" fill="none" stroke="#FFFFFF" stroke-width="2" stroke-miterlimit="10" x1="416" y1="2523" x2="1816" y2="2523"/>
	</g>
</g>
<g id="Layer_14" display="none">
	
		<line display="inline" fill="none" stroke="#FFFFFF" stroke-width="2" stroke-miterlimit="10" x1="1259" y1="1614" x2="339.747" y2="2385.346"/>
	
		<line display="inline" fill="none" stroke="#FFFFFF" stroke-width="2" stroke-miterlimit="10" x1="1259" y1="1714" x2="339.747" y2="2485.346"/>
	
		<line display="inline" fill="none" stroke="#FFFFFF" stroke-width="2" stroke-miterlimit="10" x1="1259" y1="1414" x2="339.747" y2="2185.346"/>
	
		<line display="inline" fill="none" stroke="#FFFFFF" stroke-width="2" stroke-miterlimit="10" x1="1259" y1="1514" x2="339.747" y2="2285.346"/>
	
		<line display="inline" fill="none" stroke="#FFFFFF" stroke-width="2" stroke-miterlimit="10" x1="1259" y1="1214" x2="339.747" y2="1985.346"/>
	
		<line display="inline" fill="none" stroke="#FFFFFF" stroke-width="2" stroke-miterlimit="10" x1="1259" y1="1314" x2="339.747" y2="2085.346"/>
	
		<line display="inline" fill="none" stroke="#FFFFFF" stroke-width="2" stroke-miterlimit="10" x1="1259" y1="1014" x2="339.747" y2="1785.346"/>
	
		<line display="inline" fill="none" stroke="#FFFFFF" stroke-width="2" stroke-miterlimit="10" x1="1259" y1="1114" x2="339.747" y2="1885.346"/>
	
		<line display="inline" fill="none" stroke="#FFFFFF" stroke-width="2" stroke-miterlimit="10" x1="1259" y1="814" x2="339.747" y2="1585.346"/>
	
		<line display="inline" fill="none" stroke="#FFFFFF" stroke-width="2" stroke-miterlimit="10" x1="1259" y1="914" x2="339.747" y2="1685.346"/>
	
		<line display="inline" fill="none" stroke="#FFFFFF" stroke-width="2" stroke-miterlimit="10" x1="1259" y1="614" x2="339.747" y2="1385.346"/>
	
		<line display="inline" fill="none" stroke="#FFFFFF" stroke-width="2" stroke-miterlimit="10" x1="1259" y1="714" x2="339.747" y2="1485.346"/>
	
		<line display="inline" fill="none" stroke="#FFFFFF" stroke-width="2" stroke-miterlimit="10" x1="1259" y1="514" x2="339.747" y2="1285.346"/>
</g>
<g id="Layer_14_copy" display="none">
	
		<line display="inline" fill="none" stroke="#FFFFFF" stroke-width="2" stroke-miterlimit="10" x1="416" y1="1121" x2="416" y2="2521"/>
	
		<line display="inline" fill="none" stroke="#FFFFFF" stroke-width="2" stroke-miterlimit="10" x1="569" y1="993" x2="569" y2="2393"/>
	
		<line display="inline" fill="none" stroke="#FFFFFF" stroke-width="2" stroke-miterlimit="10" x1="492" y1="1057" x2="492" y2="2457"/>
	
		<line display="inline" fill="none" stroke="#FFFFFF" stroke-width="2" stroke-miterlimit="10" x1="722" y1="864" x2="722" y2="2264"/>
	
		<line display="inline" fill="none" stroke="#FFFFFF" stroke-width="2" stroke-miterlimit="10" x1="646" y1="928" x2="646" y2="2328"/>
	
		<line display="inline" fill="none" stroke="#FFFFFF" stroke-width="2" stroke-miterlimit="10" x1="875" y1="735" x2="875" y2="2135"/>
	
		<line display="inline" fill="none" stroke="#FFFFFF" stroke-width="2" stroke-miterlimit="10" x1="799" y1="800" x2="799" y2="2200"/>
	
		<line display="inline" fill="none" stroke="#FFFFFF" stroke-width="2" stroke-miterlimit="10" x1="1029" y1="607" x2="1029" y2="2007"/>
	
		<line display="inline" fill="none" stroke="#FFFFFF" stroke-width="2" stroke-miterlimit="10" x1="952" y1="671" x2="952" y2="2071"/>
	
		<line display="inline" fill="none" stroke="#FFFFFF" stroke-width="2" stroke-miterlimit="10" x1="1182" y1="478" x2="1182" y2="1878"/>
	
		<line display="inline" fill="none" stroke="#FFFFFF" stroke-width="2" stroke-miterlimit="10" x1="1105" y1="543" x2="1105" y2="1943"/>
	
		<line display="inline" fill="none" stroke="#FFFFFF" stroke-width="2" stroke-miterlimit="10" x1="1258" y1="614" x2="1258" y2="1814"/>
</g>
<g id="Layer_9" display="none">
	
		<line display="inline" fill="none" stroke="#FFFFFF" stroke-width="2" stroke-miterlimit="10" x1="2556" y1="414" x2="2556" y2="1814"/>
	
		<line display="inline" fill="none" stroke="#FFFFFF" stroke-width="2" stroke-miterlimit="10" x1="2456" y1="414" x2="2456" y2="1814"/>
	
		<line display="inline" fill="none" stroke="#FFFFFF" stroke-width="2" stroke-miterlimit="10" x1="2356" y1="414" x2="2356" y2="1814"/>
	
		<line display="inline" fill="none" stroke="#FFFFFF" stroke-width="2" stroke-miterlimit="10" x1="2256" y1="414" x2="2256" y2="1814"/>
	
		<line display="inline" fill="none" stroke="#FFFFFF" stroke-width="2" stroke-miterlimit="10" x1="2156" y1="414" x2="2156" y2="1814"/>
	
		<line display="inline" fill="none" stroke="#FFFFFF" stroke-width="2" stroke-miterlimit="10" x1="2056" y1="414" x2="2056" y2="1814"/>
	
		<line display="inline" fill="none" stroke="#FFFFFF" stroke-width="2" stroke-miterlimit="10" x1="1956" y1="414" x2="1956" y2="1814"/>
	
		<line display="inline" fill="none" stroke="#FFFFFF" stroke-width="2" stroke-miterlimit="10" x1="1856" y1="414" x2="1856" y2="1814"/>
	
		<line display="inline" fill="none" stroke="#FFFFFF" stroke-width="2" stroke-miterlimit="10" x1="1756" y1="414" x2="1756" y2="1814"/>
	
		<line display="inline" fill="none" stroke="#FFFFFF" stroke-width="2" stroke-miterlimit="10" x1="1656" y1="414" x2="1656" y2="1814"/>
	
		<line display="inline" fill="none" stroke="#FFFFFF" stroke-width="2" stroke-miterlimit="10" x1="1556" y1="414" x2="1556" y2="1814"/>
	
		<line display="inline" fill="none" stroke="#FFFFFF" stroke-width="2" stroke-miterlimit="10" x1="1456" y1="414" x2="1456" y2="1814"/>
	
		<line display="inline" fill="none" stroke="#FFFFFF" stroke-width="2" stroke-miterlimit="10" x1="1356" y1="414" x2="1356" y2="1814"/>
</g>
<g id="Layer_9_copy" display="none">
	
		<line display="inline" fill="none" stroke="#FFFFFF" stroke-width="2" stroke-miterlimit="10" x1="1256" y1="515" x2="2656" y2="515"/>
	
		<line display="inline" fill="none" stroke="#FFFFFF" stroke-width="2" stroke-miterlimit="10" x1="1256" y1="615" x2="2656" y2="615"/>
	
		<line display="inline" fill="none" stroke="#FFFFFF" stroke-width="2" stroke-miterlimit="10" x1="1256" y1="715" x2="2656" y2="715"/>
	
		<line display="inline" fill="none" stroke="#FFFFFF" stroke-width="2" stroke-miterlimit="10" x1="1256" y1="815" x2="2656" y2="815"/>
	
		<line display="inline" fill="none" stroke="#FFFFFF" stroke-width="2" stroke-miterlimit="10" x1="1256" y1="915" x2="2656" y2="915"/>
	
		<line display="inline" fill="none" stroke="#FFFFFF" stroke-width="2" stroke-miterlimit="10" x1="1256" y1="1015" x2="2656" y2="1015"/>
	
		<line display="inline" fill="none" stroke="#FFFFFF" stroke-width="2" stroke-miterlimit="10" x1="1256" y1="1115" x2="2656" y2="1115"/>
	
		<line display="inline" fill="none" stroke="#FFFFFF" stroke-width="2" stroke-miterlimit="10" x1="1256" y1="1215" x2="2656" y2="1215"/>
	
		<line display="inline" fill="none" stroke="#FFFFFF" stroke-width="2" stroke-miterlimit="10" x1="1256" y1="1315" x2="2656" y2="1315"/>
	
		<line display="inline" fill="none" stroke="#FFFFFF" stroke-width="2" stroke-miterlimit="10" x1="1256" y1="1415" x2="2656" y2="1415"/>
	
		<line display="inline" fill="none" stroke="#FFFFFF" stroke-width="2" stroke-miterlimit="10" x1="1256" y1="1515" x2="2656" y2="1515"/>
	
		<line display="inline" fill="none" stroke="#FFFFFF" stroke-width="2" stroke-miterlimit="10" x1="1256" y1="1615" x2="2656" y2="1615"/>
	
		<line display="inline" fill="none" stroke="#FFFFFF" stroke-width="2" stroke-miterlimit="10" x1="1256" y1="1715" x2="2656" y2="1715"/>
</g>
<g id="Layer_1_copy" display="none">
	<path display="inline" fill="none" stroke="#FFFFFF" stroke-width="6" stroke-miterlimit="10" d="M1260,1814"/>
	
		<line display="inline" fill="none" stroke="#FFFFFF" stroke-width="6" stroke-miterlimit="10" x1="1260" y1="414" x2="1260" y2="963"/>
	
		<line display="inline" fill="none" stroke="#FFFFFF" stroke-width="6" stroke-miterlimit="10" x1="1953" y1="1814" x2="2660" y2="1814"/>
	<path display="inline" fill="none" stroke="#FFFFFF" stroke-width="6" stroke-miterlimit="10" d="M1260,1814"/>
	
		<line display="inline" fill="none" stroke="#FFFFFF" stroke-width="6" stroke-miterlimit="10" x1="989.02" y1="2041.393" x2="340.374" y2="2585.673"/>
	<path display="inline" fill="none" stroke="#FFFFFF" stroke-width="6" stroke-miterlimit="10" d="M989.02,2041.393"/>
	<path display="inline" fill="none" stroke="#FFFFFF" stroke-width="6" stroke-miterlimit="10" d="M1259.626,1814.327"/>
</g>
<g id="Layer_1_copy_2">
	<path fill="none" stroke="#000000" stroke-width="6" stroke-miterlimit="10" d="M1260,1814"/>
	<line fill="none" stroke="#000000" stroke-width="6" stroke-miterlimit="10" x1="1260" y1="414" x2="1260" y2="963"/>
	<line fill="none" stroke="#000000" stroke-width="6" stroke-miterlimit="10" x1="1953" y1="1814" x2="2660" y2="1814"/>
	<path fill="none" stroke="#000000" stroke-width="6" stroke-miterlimit="10" d="M1260,1814"/>
	
		<line fill="none" stroke="#000000" stroke-width="6" stroke-miterlimit="10" x1="989.02" y1="2041.393" x2="340.374" y2="2585.673"/>
	<path fill="none" stroke="#000000" stroke-width="6" stroke-miterlimit="10" d="M989.02,2041.393"/>
	<path fill="none" stroke="#000000" stroke-width="6" stroke-miterlimit="10" d="M1259.626,1814.327"/>
</g>
<g id="Layer_2_copy_3" display="none">
	<path display="inline" fill="none" stroke="#000000" stroke-width="6" stroke-miterlimit="10" d="M545.707,1563.046
		C715.411,1429.901,933.155,1509.118,979,1937"/>
	<path display="inline" fill="#FFFFFF" stroke="#000000" stroke-width="6" stroke-miterlimit="10" d="M1261,1204"/>
	<path display="inline" fill="#FFFFFF" stroke="#000000" stroke-width="6" stroke-miterlimit="10" d="M1261,1204"/>
	<path display="inline" fill="#FFFFFF" stroke="#000000" stroke-width="6" stroke-miterlimit="10" d="M1465.761,792.447"/>
	<path display="inline" fill="none" stroke="#000000" stroke-width="6" stroke-miterlimit="10" d="M545.707,1563.046
		C448.886,1639.01,367.702,1784.099,343,1973"/>
	<path display="inline" fill="none" stroke="#000000" stroke-width="6" stroke-miterlimit="10" d="M979,1937
		c3.75,34.998,8.424,67.771,13.921,98.376c56.881,316.657,201.934,401.399,323.752,319.264
		c88.966-59.985,165.54-208.977,186.326-421.64l495.855-415.678C1951.702,1444.885,1914.4,1330.399,1897,1168
		c-45.66-426.158-261.837-506.455-431.239-375.553l-920.054,770.599"/>
	<path display="inline" fill="#FFFFFF" stroke="#000000" stroke-width="6" stroke-miterlimit="10" d="M1998.855,1517.322"/>
	<path display="inline" fill="#FFFFFF" stroke="#000000" stroke-width="6" stroke-miterlimit="10" d="M2421,1164
		c-20.604,210.79-96.016,359.024-183.979,420.033"/>
	
		<line display="inline" fill="#FFFFFF" stroke="#000000" stroke-width="6" stroke-miterlimit="10" x1="2421" y1="1164" x2="1501.746" y2="1935.346"/>
	
		<line display="inline" fill="none" stroke="#000000" stroke-width="6" stroke-miterlimit="10" x1="838.41" y1="1558.596" x2="341.746" y2="1975.346"/>
	<path display="inline" fill="none" stroke="#000000" stroke-width="6" stroke-miterlimit="10" d="M838.41,1558.596"/>
	<path display="inline" fill="none" stroke="#000000" stroke-width="6" stroke-miterlimit="10" d="M1261,1204"/>
	<polyline display="inline" fill="#FFFFFF" stroke="#000000" stroke-width="6" stroke-miterlimit="10" points="2237,1583 
		1960.515,1814.812 1317,2354.346 	"/>
	
		<line display="inline" fill="none" stroke="#000000" stroke-width="6" stroke-miterlimit="10" x1="1466" y1="792" x2="546.746" y2="1563.346"/>
</g>
<g id="Layer_2_copy_6">
	<g id="XMLID_1_">
		<g>
			<path fill="#EAEAEA" d="M2236.5,1583.42l-275.99,231.39l-605.72,507.86c71.87-72.79,130.16-207.42,148.07-388.25L2421,1164
				c-20.6,210.79-96.02,359.02-183.98,420.03L2236.5,1583.42z"/>
			<path fill="#FFFFFF" d="M545.71,1563.05l759.11-635.81L558.57,1553.43C554.25,1556.5,549.97,1559.71,545.71,1563.05z"/>
			<path fill="#D3D3D3" d="M558.57,1553.43c91.23-64.939,194.44-69.14,276.77,7.75l-491.7,412.58L343,1973
				c24.7-188.9,105.89-333.99,202.71-409.95C549.97,1559.71,554.25,1556.5,558.57,1553.43z"/>
		</g>
		<g>
			<path fill="none" stroke="#000000" stroke-width="6" stroke-miterlimit="10" d="M545.71,1563.05c4.26-3.34,8.54-6.55,12.86-9.62
				c91.23-64.939,194.44-69.14,276.77,7.75C904.31,1625.56,958.63,1746.85,979,1937"/>
			<path fill="none" stroke="#000000" stroke-width="6" stroke-miterlimit="10" d="M545.71,1563.05
				C448.89,1639.01,367.7,1784.1,343,1973"/>
			<path fill="none" stroke="#000000" stroke-width="6" stroke-miterlimit="10" d="M979,1937c3.75,35,8.42,67.77,13.92,98.38
				c56.88,316.65,201.93,401.4,323.75,319.26c13.02-8.779,25.77-19.46,38.12-31.97c71.87-72.79,130.16-207.42,148.07-388.25
				c0.05-0.47,0.09-0.95,0.14-1.42l495.86-415.68C1951.7,1444.88,1914.4,1330.4,1897,1168
				c-45.66-426.16-261.84-506.46-431.24-375.55l-160.94,134.79l-759.11,635.81"/>
			<path fill="none" stroke="#000000" stroke-width="6" stroke-miterlimit="10" d="M2421,1164
				c-20.6,210.79-96.02,359.02-183.98,420.03"/>
			<polyline fill="none" stroke="#000000" stroke-width="6" stroke-miterlimit="10" points="2421,1164 1502.86,1934.42 
				1501.75,1935.35 			"/>
			<polyline fill="none" stroke="#000000" stroke-width="6" stroke-miterlimit="10" points="838.41,1558.6 835.34,1561.18 
				343.64,1973.76 341.75,1975.35 			"/>
			<polyline fill="none" stroke="#000000" stroke-width="6" stroke-miterlimit="10" points="2237,1583 2236.5,1583.42 
				1960.51,1814.81 1354.79,2322.67 1317,2354.35 			"/>
			<polyline fill="none" stroke="#000000" stroke-width="6" stroke-miterlimit="10" points="1466,792 1304.82,927.24 
				558.57,1553.43 546.75,1563.35 			"/>
		</g>
	</g>
</g>
<g id="Layer_2_copy_2" display="none">
	<path display="inline" fill="none" stroke="#000000" stroke-width="6" stroke-miterlimit="10" d="M1261,1204c68-520,564-708,636-36
		c70.879,661.538,472,528,524-4"/>
	<path display="inline" fill="none" stroke="#000000" stroke-width="6" stroke-miterlimit="10" d="M343,1973c68-520,564-708,636-36
		c70.879,661.538,472,528,524-4"/>
	<line fill="none" stroke="#000000" stroke-width="6" stroke-miterlimit="10" x1="2421" y1="1164" x2="1501.746" y2="1935.346"/>
	
		<line display="inline" fill="none" stroke="#000000" stroke-width="6" stroke-miterlimit="10" x1="1261" y1="1204" x2="341.746" y2="1975.346"/>
	<path display="inline" fill="none" stroke="#000000" stroke-width="6" stroke-miterlimit="10" d="M1217,1267c68-520,564-708,636-36
		c70.879,661.538,472,528,524-4"/>
</g>
</svg>
